<svg xmlns="http://www.w3.org/2000/svg" xmlns:xlink="http://www.w3.org/1999/xlink" width="150" height="150" viewBox="0 0 150 150">
  <defs>
    <clipPath id="clip-Artboard_1">
      <rect width="150" height="150"/>
    </clipPath>
  </defs>
  <g id="Artboard_1" data-name="Artboard – 1" clip-path="url(#clip-Artboard_1)">
    <rect width="150" height="150" fill="#fffaf0"/>
    <g id="Path_1" data-name="Path 1" transform="translate(13.898 15.113)" fill="#b8860b" opacity="0.25">
      <path d="M 60.87265396118164 118.9483337402344 C 52.85475540161133 118.9483337402344 45.07762145996094 117.395133972168 37.75730514526367 114.3318862915039 C 34.23917007446289 112.8597030639648 30.84588813781738 111.0374984741211 27.67172050476074 108.915901184082 C 24.52760314941406 106.8144149780273 21.57103729248047 104.4010162353516 18.88415336608887 101.7427520751953 C 16.19753646850586 99.08477020263672 13.75852108001709 96.16016387939453 11.63483715057373 93.05018615722656 C 9.491253852844238 89.91106414794922 7.650237083435059 86.55543518066406 6.162920475006104 83.07648468017578 C 3.068837404251099 75.83916473388672 1.500003933906555 68.15053558349609 1.500003933906555 60.22416687011719 C 1.500003933906555 52.29780197143555 3.068837404251099 44.60916519165039 6.162920475006104 37.37184906005859 C 7.650237083435059 33.89289855957031 9.491253852844238 30.53726768493652 11.63483715057373 27.39814949035645 C 13.75852108001709 24.28816604614258 16.19753646850586 21.36356735229492 18.88415336608887 18.7055835723877 C 21.57103729248047 16.04731750488281 24.52760314941406 13.6339168548584 27.67172050476074 11.53243350982666 C 30.84588813781738 9.410833358764648 34.23917007446289 7.58863353729248 37.75730514526367 6.116450309753418 C 45.07762145996094 3.053200244903564 52.85475540161133 1.500000238418579 60.87265396118164 1.500000238418579 C 68.89055633544922 1.500000238418579 76.66768646240234 3.053200244903564 83.98800659179688 6.116450309753418 C 87.50613403320313 7.58863353729248 90.89942169189453 9.410833358764648 94.07360076904297 11.53243350982666 C 97.21770477294922 13.6339168548584 100.1742706298828 16.04731750488281 102.8611526489258 18.7055835723877 C 105.5477676391602 21.36356735229492 107.9867858886719 24.28816604614258 110.1104736328125 27.39814949035645 C 112.2540512084961 30.53726768493652 114.0950698852539 33.89289855957031 115.582389831543 37.37184906005859 C 118.6764678955078 44.60916519165039 120.2453002929688 52.29780197143555 120.2453002929688 60.22416687011719 C 120.2453002929688 68.15053558349609 118.6764678955078 75.83916473388672 115.582389831543 83.07648468017578 C 114.0950698852539 86.55543518066406 112.2540512084961 89.91106414794922 110.1104736328125 93.05018615722656 C 107.9867858886719 96.16016387939453 105.5477676391602 99.08477020263672 102.8611526489258 101.7427520751953 C 100.1742706298828 104.4010162353516 97.21770477294922 106.8144149780273 94.07360076904297 108.915901184082 C 90.89942169189453 111.0374984741211 87.50613403320313 112.8597030639648 83.98800659179688 114.3318862915039 C 76.66768646240234 117.395133972168 68.89055633544922 118.9483337402344 60.87265396118164 118.9483337402344 Z" stroke="none"/>
      <path d="M 60.87265396118164 3 C 53.05461883544922 3 45.4722900390625 4.514076232910156 38.33634185791016 7.50018310546875 C 34.90703582763672 8.935203552246094 31.59938049316406 10.71144104003906 28.50525665283203 12.77951049804688 C 25.44034576416016 14.82805633544922 22.55828857421875 17.18064117431641 19.93912506103516 19.77191162109375 C 17.32051086425781 22.36262512207031 14.94330596923828 25.21305847167969 12.87356567382813 28.24404144287109 C 10.78492736816406 31.30271148681641 8.991180419921875 34.57212829589844 7.542160034179688 37.96150970458984 C 4.5281982421875 45.01140594482422 3 52.50164031982422 3 60.22416687011719 C 3 67.94669342041016 4.5281982421875 75.43693542480469 7.542160034179688 82.48681640625 C 8.991180419921875 85.87620544433594 10.78492736816406 89.14562225341797 12.87356567382813 92.20429229736328 C 14.94330596923828 95.23527526855469 17.32051086425781 98.08570861816406 19.93912506103516 100.6764221191406 C 22.55828857421875 103.267692565918 25.44034576416016 105.6202774047852 28.50525665283203 107.6688232421875 C 31.59938049316406 109.7368927001953 34.90703582763672 111.5131301879883 38.33634185791016 112.9481506347656 C 45.4722900390625 115.9342575073242 53.05461883544922 117.4483337402344 60.87265396118164 117.4483337402344 C 68.69070434570313 117.4483337402344 76.27301788330078 115.9342575073242 83.40898132324219 112.9481506347656 C 86.83828735351563 111.5131301879883 90.14594268798828 109.7368927001953 93.24007415771484 107.6688232421875 C 96.30496215820313 105.6202774047852 99.18703460693359 103.267692565918 101.8061981201172 100.6764221191406 C 104.4247970581055 98.08570861816406 106.802001953125 95.23527526855469 108.8717422485352 92.20429229736328 C 110.9603805541992 89.14562225341797 112.7541275024414 85.87620544433594 114.2031478881836 82.48681640625 C 117.2171096801758 75.43693542480469 118.7453079223633 67.94669342041016 118.7453079223633 60.22416687011719 C 118.7453079223633 52.50164031982422 117.2171096801758 45.01140594482422 114.2031478881836 37.96150970458984 C 112.7541275024414 34.57212829589844 110.9603805541992 31.30271148681641 108.8717422485352 28.24404144287109 C 106.802001953125 25.21305847167969 104.4247970581055 22.36262512207031 101.8061981201172 19.77191162109375 C 99.18703460693359 17.18064117431641 96.30496215820313 14.82805633544922 93.24007415771484 12.77951049804688 C 90.14594268798828 10.71144104003906 86.83828735351563 8.935203552246094 83.40898132324219 7.50018310546875 C 76.27301788330078 4.514076232910156 68.69070434570313 3 60.87265396118164 3 M 60.87265396118164 0 C 94.49170684814453 0 121.7453079223633 26.96329498291016 121.7453079223633 60.22416687011719 C 121.7453079223633 93.48503875732422 94.49170684814453 120.4483337402344 60.87265396118164 120.4483337402344 C 27.25361633300781 120.4483337402344 0 93.48503875732422 0 60.22416687011719 C 0 26.96329498291016 27.25361633300781 0 60.87265396118164 0 Z" stroke="none" fill="#785807"/>
    </g>
    <g id="Ellipse_14" data-name="Ellipse 14" transform="translate(67 39)" fill="#6b8e23" stroke="#785807" stroke-width="0.5" opacity="0.3">
      <circle cx="8.5" cy="8.5" r="8.5" stroke="none"/>
      <circle cx="8.5" cy="8.5" r="8.25" fill="none"/>
    </g>
    <g id="Ellipse_59" data-name="Ellipse 59" transform="translate(81 89)" fill="#6b8e23" stroke="#785807" stroke-width="0.5" opacity="0.3">
      <circle cx="8.5" cy="8.5" r="8.5" stroke="none"/>
      <circle cx="8.5" cy="8.5" r="8.25" fill="none"/>
    </g>
    <g id="Ellipse_25" data-name="Ellipse 25" transform="translate(88 71)" fill="#6b8e23" stroke="#785807" stroke-width="0.5" opacity="0.3">
      <circle cx="6" cy="6" r="6" stroke="none"/>
      <circle cx="6" cy="6" r="5.75" fill="none"/>
    </g>
    <g id="Ellipse_32" data-name="Ellipse 32" transform="translate(104 101)" fill="#6b8e23" stroke="#785807" stroke-width="0.5" opacity="0.3">
      <circle cx="6" cy="6" r="6" stroke="none"/>
      <circle cx="6" cy="6" r="5.75" fill="none"/>
    </g>
    <g id="Ellipse_36" data-name="Ellipse 36" transform="translate(27 91)" fill="#6b8e23" stroke="#785807" stroke-width="0.5" opacity="0.3">
      <circle cx="6" cy="6" r="6" stroke="none"/>
      <circle cx="6" cy="6" r="5.75" fill="none"/>
    </g>
    <g id="Ellipse_13" data-name="Ellipse 13" transform="translate(58 63)" fill="tomato" stroke="#785807" stroke-width="0.5" opacity="0.3">
      <circle cx="13.5" cy="13.5" r="13.5" stroke="none"/>
      <circle cx="13.5" cy="13.5" r="13.25" fill="none"/>
    </g>
    <g id="Ellipse_54" data-name="Ellipse 54" transform="translate(40 50)" fill="tomato" stroke="#785807" stroke-width="0.5" opacity="0.3">
      <circle cx="10.5" cy="10.5" r="10.5" stroke="none"/>
      <circle cx="10.5" cy="10.5" r="10.25" fill="none"/>
    </g>
    <g id="Ellipse_58" data-name="Ellipse 58" transform="translate(103 76)" fill="tomato" stroke="#785807" stroke-width="0.5" opacity="0.3">
      <circle cx="10.5" cy="10.5" r="10.5" stroke="none"/>
      <circle cx="10.5" cy="10.5" r="10.25" fill="none"/>
    </g>
    <g id="Ellipse_52" data-name="Ellipse 52" transform="translate(103 38)" fill="tomato" stroke="#785807" stroke-width="0.5" opacity="0.3">
      <circle cx="8" cy="8" r="8" stroke="none"/>
      <circle cx="8" cy="8" r="7.75" fill="none"/>
    </g>
    <g id="Ellipse_53" data-name="Ellipse 53" transform="translate(84 108)" fill="tomato" stroke="#785807" stroke-width="0.5" opacity="0.3">
      <circle cx="8" cy="8" r="8" stroke="none"/>
      <circle cx="8" cy="8" r="7.75" fill="none"/>
    </g>
    <g id="Ellipse_55" data-name="Ellipse 55" transform="translate(42 81)" fill="tomato" stroke="#785807" stroke-width="0.5" opacity="0.3">
      <circle cx="8" cy="8" r="8" stroke="none"/>
      <circle cx="8" cy="8" r="7.75" fill="none"/>
    </g>
    <g id="Ellipse_2" data-name="Ellipse 2" transform="translate(62 21)" fill="tomato" stroke="#785807" stroke-width="0.5" opacity="0.3">
      <circle cx="6.5" cy="6.5" r="6.5" stroke="none"/>
      <circle cx="6.5" cy="6.5" r="6.25" fill="none"/>
    </g>
    <g id="Ellipse_30" data-name="Ellipse 30" transform="translate(84 54)" fill="tomato" stroke="#785807" stroke-width="0.5" opacity="0.3">
      <circle cx="6.5" cy="6.5" r="6.5" stroke="none"/>
      <circle cx="6.5" cy="6.5" r="6.25" fill="none"/>
    </g>
    <g id="Ellipse_33" data-name="Ellipse 33" transform="translate(45 106)" fill="tomato" stroke="#785807" stroke-width="0.5" opacity="0.3">
      <circle cx="8" cy="8" r="8" stroke="none"/>
      <circle cx="8" cy="8" r="7.75" fill="none"/>
    </g>
    <g id="Ellipse_23" data-name="Ellipse 23" transform="translate(69 104)" fill="tomato" stroke="#785807" stroke-width="0.5" opacity="0.3">
      <circle cx="5" cy="5" r="5" stroke="none"/>
      <circle cx="5" cy="5" r="4.75" fill="none"/>
    </g>
    <g id="Ellipse_31" data-name="Ellipse 31" transform="translate(38 33)" fill="tomato" stroke="#785807" stroke-width="0.5" opacity="0.3">
      <circle cx="5" cy="5" r="5" stroke="none"/>
      <circle cx="5" cy="5" r="4.75" fill="none"/>
    </g>
    <g id="Ellipse_27" data-name="Ellipse 27" transform="translate(21 66)" fill="tomato" stroke="#785807" stroke-width="0.5" opacity="0.3">
      <circle cx="9" cy="9" r="9" stroke="none"/>
      <circle cx="9" cy="9" r="8.75" fill="none"/>
    </g>
    <g id="Ellipse_34" data-name="Ellipse 34" transform="translate(87 29)" fill="#6b8e23" stroke="#785807" stroke-width="0.5" opacity="0.3">
      <circle cx="6" cy="6" r="6" stroke="none"/>
      <circle cx="6" cy="6" r="5.75" fill="none"/>
    </g>
    <g id="Ellipse_40" data-name="Ellipse 40" transform="translate(25 50)" fill="#6b8e23" stroke="#785807" stroke-width="0.5" opacity="0.3">
      <circle cx="6" cy="6" r="6" stroke="none"/>
      <circle cx="6" cy="6" r="5.75" fill="none"/>
    </g>
    <g id="Ellipse_43" data-name="Ellipse 43" transform="translate(60 92)" fill="#6b8e23" stroke="#785807" stroke-width="0.5" opacity="0.3">
      <circle cx="4.5" cy="4.5" r="4.5" stroke="none"/>
      <circle cx="4.5" cy="4.5" r="4.25" fill="none"/>
    </g>
    <g id="Ellipse_61" data-name="Ellipse 61" transform="translate(104 59)" fill="#6b8e23" stroke="#785807" stroke-width="0.5" opacity="0.3">
      <circle cx="4.5" cy="4.5" r="4.5" stroke="none"/>
      <circle cx="4.5" cy="4.5" r="4.25" fill="none"/>
    </g>
    <g id="Ellipse_62" data-name="Ellipse 62" transform="translate(51 39)" fill="#6b8e23" stroke="#785807" stroke-width="0.5" opacity="0.3">
      <circle cx="4.5" cy="4.5" r="4.5" stroke="none"/>
      <circle cx="4.5" cy="4.5" r="4.25" fill="none"/>
    </g>
    <g id="Ellipse_60" data-name="Ellipse 60" transform="translate(119 66)" fill="#6b8e23" stroke="#785807" stroke-width="0.5" opacity="0.3">
      <circle cx="4.5" cy="4.5" r="4.5" stroke="none"/>
      <circle cx="4.5" cy="4.5" r="4.25" fill="none"/>
    </g>
    <g id="Ellipse_57" data-name="Ellipse 57" transform="translate(66 118)" fill="#6b8e23" stroke="#785807" stroke-width="0.5" opacity="0.3">
      <circle cx="4.5" cy="4.5" r="4.5" stroke="none"/>
      <circle cx="4.5" cy="4.5" r="4.25" fill="none"/>
    </g>
  </g>
</svg>
